# xmcd
#
# Track frame offsets:
#	150
#	20637
#	36242
#	53249
#	64153
#	76930
#	94414
#	110235
#	122878
#	146010
#	159224
#	172996
#
# Disc length: 2559 seconds
#
# Revision: 0
# Processed by: cddbd v1.4PL0 Copyright (c) Steve Scherf et al.
# Submitted via: EasyCDDAExtractor 4.6.0.1
#
DISCID=a509fd0c
DTITLE=Clarence Brewer - King Clarentz
DYEAR=1999
DGENRE=Blues
TTITLE0=Bed spring boogie
TTITLE1=Old gop
TTITLE2=Juice in the hole
TTITLE3=Fast food slow death
TTITLE4=Preachin' blues
TTITLE5=Spyin' and talkin'
TTITLE6=Devil's den
TTITLE7=Graveyard blues
TTITLE8=Halloween blues
TTITLE9=Whiskey and women
TTITLE10=Pepper in my shoe
TTITLE11=Whiskey train
EXTD=
EXTT0=
EXTT1=
EXTT2=
EXTT3=
EXTT4=
EXTT5=
EXTT6=
EXTT7=
EXTT8=
EXTT9=
EXTT10=
EXTT11=
PLAYORDER=
